<?xml version="1.0" encoding="UTF-8" standalone="no"?>
<svg xmlns:rdf="http://www.w3.org/1999/02/22-rdf-syntax-ns#" xmlns="http://www.w3.org/2000/svg" xml:space="preserve" height="52.997" viewBox="0 0 147.04101 52.997349" width="147.04" version="1.1" xmlns:cc="http://creativecommons.org/ns#" xmlns:dc="http://purl.org/dc/elements/1.1/"><g transform="matrix(1.25 0 0 -1.25 -224.96 771.13)"><g transform="translate(.41420 .41420)"><path d="m280.71 605.25-1.998-7.33-1.956 7.347h-10.439l-1.474-5.366c-1.092 2.685-3.736 5.977-9.254 5.977-5.645 0-9.16-3.115-10.461-4.521-1.961 2.316-5.472 4.228-10.009 4.228-6.574 0-10.126-3.484-10.126-3.484l0.893 3.302h-15.249l-1.63-6.258s-0.776 6.439-9.74 6.439l-10.912 0.009-2.622-9.288h1.949l-3.18-11.473h-1.906l-2.624-9.295h13.772c6.345 0 9.512 2.854 9.512 2.854l-0.807-3.049h15.148l0.565 1.943c2.295-1.414 5.569-2.785 9.684-2.785 8.498 0 11.598 5.924 11.598 5.924s1.711-5.895 8.906-5.895c6.884 0 10.625 4.398 10.625 4.398l-1.015-3.718h12.576l2.192 7.817 2.027-7.831h8.279l5.759 20.76h1.948l2.62 9.295h-12.651z" fill="#ffc82e"/><path d="m25.74 0c-0.53-0.0025-1.0286 0.084297-1.4961 0.24805-0.46625 0.16625-0.88555 0.40992-1.248 0.73242-0.385 0.34-0.71875 0.74344-1 1.2109-0.285 0.46875-0.53062 0.95852-0.73438 1.4785-0.2 0.5225-0.35875 1.0492-0.46875 1.5742-0.11375 0.5325-0.1843 1.0244-0.2168 1.4844-0.06125 0.9225 0.14047 1.6488 0.60547 2.1738 0.47 0.525 1.1705 0.78906 2.1055 0.78906 0.52 0.0025 1.0142-0.081406 1.4805-0.25391 0.465-0.16875 0.88008-0.41156 1.2363-0.72656 0.3375-0.29375 0.64703-0.65859 0.92578-1.0898 0.2825-0.43 0.53023-0.89875 0.74023-1.4062 0.21-0.5075 0.38242-1.0375 0.51367-1.5938 0.13125-0.555 0.21375-1.1063 0.25-1.6562 0.065-0.915-0.13852-1.6373-0.60352-2.166-0.469-0.53007-1.165-0.7989-2.09-0.7989zm62.059 0c-0.53-0.0025-1.0247 0.084297-1.4922 0.24805-0.4675 0.16625-0.885 0.40992-1.25 0.73242-0.385 0.34-0.71875 0.74344-1 1.2109-0.2875 0.46875-0.52797 0.95852-0.73047 1.4785-0.20375 0.5225-0.36391 1.0492-0.47266 1.5742-0.1125 0.5325-0.18414 1.0244-0.21289 1.4844-0.065 0.9225 0.13742 1.6488 0.60742 2.1738 0.4625 0.525 1.1678 0.78906 2.1016 0.78906 0.52 0.0025 1.0155-0.081406 1.4805-0.25391 0.46625-0.16875 0.87688-0.41156 1.2344-0.72656 0.34-0.29375 0.64844-0.65859 0.92969-1.0898 0.28125-0.43 0.52578-0.89875 0.73828-1.4062 0.21125-0.5075 0.38117-1.0375 0.51367-1.5938 0.13-0.555 0.2132-1.1062 0.25195-1.6562 0.06375-0.915-0.14242-1.6373-0.60742-2.166-0.467-0.53007-1.165-0.7989-2.092-0.7989zm25.301 0.023438c-0.5725-0.00125-1.0927 0.068438-1.5527 0.21094-0.4675 0.145-0.8725 0.34703-1.2188 0.61328-0.3425 0.2625-0.61445 0.58805-0.81445 0.9668-0.195 0.38375-0.30875 0.81211-0.34375 1.2871-0.0175 0.27125-0.002 0.50859 0.0547 0.71484 0.0588 0.205 0.1386 0.39109 0.2461 0.55859 0.11125 0.16625 0.23531 0.31125 0.38281 0.4375 0.14375 0.12625 0.30219 0.24406 0.46094 0.35156l0.88476 0.5918c0.25375 0.17 0.44719 0.31875 0.58594 0.4375 0.1375 0.1225 0.19859 0.28664 0.18359 0.49414-0.015 0.2325-0.11929 0.42734-0.31054 0.58984-0.19 0.1625-0.48727 0.24219-0.88477 0.24219-0.20375-0.0025-0.37875-0.021797-0.53125-0.060547-0.15125-0.04-0.30086-0.0925-0.44336-0.15625l0.25-0.91602h-1.9082l-0.62305 2.252c0.1 0.10625 0.22867 0.2175 0.26367 0.25 0.1675 0.1175 0.36836 0.22055 0.59961 0.31055 0.2325 0.09125 0.47391 0.16711 0.72266 0.22461 0.245 0.0575 0.49203 0.10227 0.73828 0.13477 0.245 0.03125 0.46742 0.046875 0.66992 0.046875 0.5575 0 1.0691-0.079375 1.5391-0.23438 0.47124-0.15625 0.87992-0.37391 1.2324-0.66016 0.34875-0.28 0.62843-0.62203 0.83593-1.0195 0.21-0.4 0.33008-0.84367 0.36133-1.3262 0.0225-0.27125-0.004-0.51523-0.0742-0.74023-0.07-0.22375-0.16547-0.42867-0.29296-0.60742-0.12001-0.17875-0.26696-0.33977-0.43946-0.47852s-0.34719-0.26531-0.52344-0.38281l-0.61-0.4065c-0.23875-0.15125-0.44922-0.29469-0.63672-0.42969-0.18625-0.13375-0.26585-0.29883-0.25585-0.48633 0.015-0.21375 0.11203-0.4007 0.30078-0.56445 0.1875-0.1625 0.4614-0.24219 0.8164-0.24219 0.25375 0.00125 0.49782 0.047969 0.72657 0.13672l-0.25196 0.85742 1.8965 0.00391 0.58593-2.0762c-0.0487-0.07125-0.10156-0.13938-0.13281-0.17188-0.18125-0.1875-0.49187-0.36203-0.92187-0.51953-0.43125-0.15625-0.94735-0.23438-1.5586-0.23438zm13.441 0.15625-4.0879 7.2793h-0.55664l-0.54883 1.9531h2.8516l0.98438-2.2461h1.5644l-0.0488 2.252 2.5684 0.00195 0.53125-1.9512h-0.55469l-0.17382-7.2871-2.5293-0.001953zm-9.5352 0.023438-0.84765 3.1426h1.668l0.29296-0.94922h0.70313l-1.4219 5.0898-0.85156-0.00195-0.51758 1.9512 4.2305 0.00391 0.53125-1.9512h-0.83594l1.3926-5.0879h0.74024l-0.2461 0.94531h1.6719l0.875-3.1387-7.3848-0.003906zm14.379 0-0.8457 3.1426h1.668l0.29297-0.94922h0.70313l-1.4199 5.0898-0.85157-0.00195-0.51953 1.9512 4.2285 0.00391 0.53711-1.9512h-0.83985l1.3926-5.0879h0.74024l-0.2461 0.94531h1.6699l0.87891-3.1387-7.3887-0.003906zm8.332 0.013672-0.5332 1.9531h0.66406l-1.4766 5.332-0.67383-0.00391-0.55078 1.9512 6.2812 0.00781 0.78125-2.8008-1.8828-0.00195-0.19727 0.72656h-1.1797l0.47266-1.709h2.4902l0.56836-2.0586-2.4805-0.00195 0.36914-1.332h1.1504l-0.17968 0.62109 1.9512 0.00195 0.75391-2.6816-6.3281-0.003906zm-126.46 0.00195l-0.55078 1.9512h0.67969l-1.4766 5.3262h-0.6875l-0.53516 1.9531 3.0625 0.00195 1.1191-3.998c0.035-0.12625 0.14711-0.70789 0.16211-0.80664 0.02625 0.125 0.12141 0.66797 0.16016 0.79297l1.0391 4.0156 1.9023 0.00195 2.0176-7.2832h0.6875l0.55078-1.9512-3.0762-0.001953-1.0234 3.7559c-0.03875 0.1425-0.16195 0.67414-0.18945 0.80664-0.015-0.1325-0.12422-0.64172-0.16797-0.79297l-1.008-3.7716h-2.666zm16.941 0.001953-0.54688 1.9512h0.67578l-1.4746 5.332h-0.67383l-0.55078 1.9512 3.1816 0.00391 1.0039-3.6621 0.73633 3.6641h2.666l0.53516-1.9512-1.0723-0.00195-0.58984-2.0176c0.2225-0.0725 0.41109-0.14836 0.55859-0.22461 0.14375-0.07625 0.29703-0.17258 0.45703-0.29883 0.345-0.2875 0.62344-0.64367 0.83594-1.0762 0.2075-0.43 0.32812-0.87156 0.35937-1.3203 0.0325-0.45625-0.0318-0.84078-0.18555-1.1445-0.1575-0.3075-0.37711-0.54695-0.66211-0.7207-0.282-0.17627-0.621-0.30057-1.012-0.37307-0.392-0.07375-0.804-0.10547-1.237-0.10547l-3.003-0.00586zm15.969 0-0.55078 1.9512h0.68164l-1.4922 5.332h-0.66016l-0.54883 1.9531 3.2207 0.00195 1.0371-3.7305 1.6133 0.00195-1.0195 3.7305 3.2129 0.00195 0.5332-1.9531h-0.67774l1.4922-5.3301h0.66992l0.55078-1.9512-3.2363-0.001953-0.93164 3.418-1.627-0.00391 0.96484-3.416-3.2324-0.003906zm29.496 0-0.55078 1.9512h0.68164l-1.4824 5.332h-0.66992l-0.55078 1.9512 3.2227 0.00391 0.92774-3.3125 1.4512 3.3145h2.3457l0.53516-1.9512h-0.92969l-1.4512-2.7871 2.8867-2.543h0.67188l0.55078-1.9512-2.1973-0.001953-3.0039 2.8223 0.78711-2.8242-3.2246-0.003906zm-6.3164 0.005859-4.0938 7.2773h-0.55274l-0.55078 1.9512 2.8516 0.00391 0.98828-2.2461h1.5605l-0.05078 2.248h2.5684l0.53516-1.9512h-0.55859l-0.16797-7.2832h-2.5293zm32.436 0-4.0918 7.2773h-0.55274l-0.55078 1.9512 2.8516 0.00391 0.98633-2.2461h1.5625l-0.0527 2.248h2.5742l0.5332-1.9512h-0.55859l-0.17383-7.2832h-2.5274zm-63.92 0.011719-0.84375 3.1426h1.666l0.29492-0.94727h0.70117l-1.418 5.0898h-0.84961l-0.52148 1.9512 4.2285 0.00195 0.53516-1.9531h-0.83594l1.3926-5.0879h0.74219l-0.25 0.94531h1.6719l0.87695-3.1348-7.3887-0.007813zm54.168 0.005859-0.8457 3.1426h1.666l0.29688-0.94727h0.69922l-1.418 5.0898h-0.84961l-0.52344 1.9512 4.2305 0.00391 0.53516-1.9551h-0.83789l1.3906-5.0859h0.74414l-0.24609 0.94336h1.6699l0.875-3.1348-7.3867-0.007812zm-33.197 0.007812-0.55078 1.9512h0.68359l-1.4785 5.3281h-0.67187l-0.55078 1.9531 3.1816 0.00195c0.32625 0 0.65945-0.00664 1.002-0.025391 0.33875-0.0175 0.6725-0.061563 1-0.13281 0.32625-0.0725 0.64172-0.1768 0.94922-0.31055 0.305-0.1325 0.59148-0.31773 0.86523-0.55273 0.29125-0.2475 0.56039-0.56813 0.80664-0.95312 0.2475-0.38625 0.4643-0.80406 0.6543-1.2578 0.18875-0.4525 0.34344-0.92617 0.46094-1.4199 0.1175-0.49375 0.19016-0.96953 0.22266-1.4258 0.02875-0.43125-0.0062-0.84188-0.10742-1.2344-0.10125-0.3875-0.26117-0.72516-0.48242-1.0039-0.29125-0.36625-0.67312-0.61313-1.1406-0.73438-0.47-0.12125-1.0959-0.18359-1.8809-0.18359h-2.9629zm-33.383 1.7812c0.055 0 0.10836 0.00578 0.16211 0.019531 0.04625 0.01375 0.09883 0.052188 0.14258 0.11719 0.04375 0.06125 0.07836 0.15375 0.09961 0.28125 0.02 0.125 0.02477 0.30164 0.0098 0.52539-0.03625 0.53-0.12492 1.0773-0.26367 1.6348-0.1425 0.5625-0.32398 1.0976-0.55274 1.6113-0.23875 0.5275-0.48453 0.89773-0.73828 1.1152-0.25375 0.21375-0.49586 0.32227-0.72461 0.32227-0.05375 0-0.10656-0.00773-0.16406-0.021484-0.055-0.0125-0.10734-0.052734-0.15234-0.11523-0.0425-0.065-0.07711-0.15695-0.09961-0.2832-0.02125-0.12375-0.02422-0.29914-0.01172-0.52539 0.04-0.52875 0.12758-1.0714 0.26758-1.6289 0.13625-0.555 0.32945-1.0871 0.56445-1.5996 0.23875-0.53875 0.48156-0.91516 0.72656-1.1289 0.245-0.215 0.49062-0.32422 0.73438-0.32422zm62.064 0c0.055 0 0.10445 0.00578 0.1582 0.019531 0.04875 0.01375 0.09953 0.052188 0.14453 0.11719 0.045 0.06125 0.07711 0.15375 0.09961 0.28125 0.02125 0.125 0.02352 0.30164 0.0098 0.52539-0.035 0.53-0.12367 1.0773-0.26367 1.6348-0.14125 0.5625-0.32344 1.0976-0.55469 1.6113-0.24 0.5275-0.48453 0.89773-0.73828 1.1152-0.255 0.21375-0.4932 0.32227-0.7207 0.32227-0.05375 0-0.10867-0.00773-0.16992-0.021484-0.05375-0.0125-0.10469-0.052734-0.14844-0.11523-0.04375-0.065-0.07656-0.15695-0.10156-0.2832-0.02-0.12375-0.02352-0.29914-0.0098-0.52539 0.0375-0.52875 0.12578-1.0714 0.26953-1.6289 0.135-0.555 0.325-1.0871 0.5625-1.5996 0.2375-0.53875 0.48031-0.91516 0.72656-1.1289 0.245-0.215 0.49133-0.32422 0.73633-0.32422zm-54.666 0.10156h0.33008c0.2675 0.00125 0.44156 0.049687 0.53906 0.14844 0.09625 0.1 0.13555 0.24711 0.12305 0.44336-0.02625 0.415-0.16078 0.73539-0.39453 0.96289-0.23875 0.23125-0.61195 0.3418-1.127 0.3418l0.5293-1.8965zm28.625 0.15039h0.33203c0.41375 0.00125 0.69781 0.079531 0.85156 0.23828 0.1525 0.155 0.21375 0.44594 0.1875 0.86719-0.02375 0.325-0.07133 0.65555-0.14258 0.99805-0.07 0.34-0.16188 0.66742-0.26562 0.98242-0.10375 0.31125-0.22562 0.59938-0.35938 0.85938-0.13125 0.25875-0.26664 0.47578-0.40039 0.64453-0.145 0.18-0.33336 0.31906-0.56836 0.41406-0.2375 0.0925-0.5918 0.14359-1.0605 0.15234l1.4258-5.1562zm65.715 0.29102c-0.0175 0.135-0.0341 0.27914-0.0566 0.43164-0.0162 0.1525-0.0365 0.27945-0.0527 0.37695l-0.21094 1.9648h-0.98047l1.3008-2.7734zm-57.205 0.044922c-0.0175 0.13375-0.03664 0.27719-0.05664 0.42969-0.01875 0.155-0.03453 0.27945-0.05078 0.37695l-0.21484 1.9688-0.97852-0.00195 1.3008-2.7734zm32.439 0c-0.0188 0.13375-0.0354 0.27719-0.0566 0.42969-0.02 0.155-0.0352 0.27945-0.0527 0.37695l-0.21094 1.9688-0.98242-0.00195 1.3027-2.7734zm-7.875 12.481c-1.8875 0-3.6609 0.29156-5.3184 0.88281-1.6675 0.58875-3.1451 1.4601-4.4551 2.6113-1.3712 1.2138-2.5616 2.6507-3.5703 4.3145-1.01 1.6612-1.8798 3.4204-2.6035 5.2754-0.72375 1.8538-1.2827 3.7258-1.6777 5.6133-0.4 1.8838-0.65117 3.6436-0.76367 5.2773-0.225 3.2938 0.4932 5.8788 2.1582 7.75 1.665 1.8725 4.1657 2.81 7.502 2.8125 1.855 0.0025 3.6122-0.2975 5.2734-0.90625 1.6625-0.605 3.1273-1.4645 4.4023-2.582 1.2025-1.0562 2.3048-2.3528 3.3086-3.8828 1.0012-1.5375 1.8771-3.2074 2.6309-5.0137 0.75-1.8075 1.3612-3.7018 1.8262-5.6855 0.4675-1.9812 0.76468-3.9486 0.89843-5.9023 0.22375-3.2612-0.49765-5.8371-2.1602-7.7246-1.6625-1.8912-4.1462-2.8373-7.4512-2.8398zm-82.297 0.35742-1.9629 6.957h2.4199l-5.2617 18.994h-2.3926l-1.9668 6.957 13.273 0.01172c1.0362 0 1.9138-0.02281 2.625-0.07031 0.71-0.0475 1.3474-0.10875 1.9199-0.1875 0.57125-0.0825 1.1013-0.19219 1.5801-0.33594 0.48125-0.1425 0.99992-0.31141 1.5449-0.50391 1.8688-0.63625 3.4577-1.8023 4.7715-3.4961 1.3075-1.695 2.0497-3.7419 2.2109-6.1406 0.095-1.3738-0.08148-2.6202-0.52148-3.7402-0.4425-1.12-1.3027-1.9902-2.584-2.5977 2.0025-0.79875 3.4481-1.8749 4.3281-3.2324 0.88125-1.3588 1.3723-2.8206 1.4785-4.3906 0.1025-1.5012-0.07008-2.7732-0.51758-3.8145-0.44875-1.0388-1.1168-1.8899-1.998-2.5449-0.88625-0.655-1.9253-1.1298-3.1328-1.416-1.2088-0.29125-2.5198-0.43555-3.9336-0.43555l-11.881-0.01367zm56.721 0.0078c-2.0512-0.0012-3.9055 0.25242-5.5605 0.76367-1.66 0.50875-3.1008 1.2384-4.332 2.1797-1.23 0.94625-2.1975 2.0997-2.9062 3.4609-0.71 1.3612-1.1174 2.8904-1.2324 4.5879-0.06875 0.96125-0.000781 1.8106 0.19922 2.5469 0.20375 0.7375 0.49836 1.3998 0.88086 1.9961 0.385 0.59125 0.83688 1.1138 1.3594 1.5625 0.52125 0.45 1.0669 0.8682 1.6406 1.252l3.1621 2.1133c0.90375 0.61125 1.5998 1.1295 2.0898 1.5645 0.49375 0.4325 0.70945 1.0171 0.6582 1.7559-0.05625 0.83375-0.42383 1.5363-1.1113 2.1113-0.685 0.5775-1.733 0.86453-3.1543 0.86328-0.72375-0.0012-1.3584-0.07305-1.8984-0.2168-0.54375-0.145-1.075-0.33148-1.5938-0.55273l1.2051-4.3945-6.8008-0.0078-2.6445 9.5254c1.7975 1.2362 5.4127 3.0882 10.896 3.0957 1.98 0.0012 3.7151-0.27594 5.3926-0.83594 1.6775-0.5575 3.1424-1.3434 4.3887-2.3496 1.2525-1.0088 2.2491-2.2266 2.9941-3.6504 0.74125-1.4225 1.1737-3.0012 1.2949-4.7324 0.0625-0.95875-0.02398-1.8426-0.27148-2.6426-0.245-0.8-0.58891-1.5203-1.0352-2.1641-0.445-0.64125-0.96953-1.2076-1.582-1.7051-0.6125-0.4975-1.2336-0.95625-1.8711-1.375l-2.2168-1.4395c-0.8425-0.54625-1.5946-1.0605-2.2559-1.543-0.65875-0.48125-0.96492-1.0567-0.91992-1.7305 0.05125-0.76875 0.41203-1.4406 1.082-2.0156 0.6675-0.57625 1.6338-0.86648 2.8926-0.86523 0.915 0.0025 1.787 0.16383 2.6133 0.48633l-0.90234 3.0742 6.7676 0.0078 2.1465-7.6309c-1.21-1.1675-4.0125-3.0895-9.375-3.0957zm-28.83 0.23047-1.8086 6.9551 2.4785 0.002-5.2637 18.996-2.5586-0.0039-1.8516 6.959 14.131 0.01367 1.9023-6.957-2.5625-0.0059 5.3066-18.994 2.5547 0.0039 1.8906-6.957-14.219-0.01172zm69.563 0.17188-1.9648 6.9531h2.4219l-5.2617 18.996h-2.4512l-1.9024 6.959 10.906 0.0059 3.9922-14.246c0.1275-0.44625 0.52188-2.5232 0.57813-2.877 0.0925 0.4475 0.43304 2.3826 0.56054 2.8301l3.709 14.309h6.7812l7.1992-25.949h2.4414l1.9629-6.957-10.965-0.0059-3.6465 13.381c-0.12875 0.51375-0.57367 2.4027-0.66992 2.8789-0.0588-0.47625-0.45617-2.2851-0.60742-2.8301l-3.59-13.442-9.5-0.006zm-88.018 6.3164 1.418 0.002c0.9125 0.0012 1.5043 0.17555 1.7793 0.5293 0.27625 0.3525 0.39492 0.7975 0.35742 1.3438-0.09625 1.405-0.56953 2.4942-1.4258 3.2617-0.85625 0.76625-1.8636 1.1477-3.0273 1.1465l-0.84961-0.002 1.748-6.2812zm71.799 0.16016c0.1875 0 0.37625 0.02352 0.5625 0.07227 0.185 0.0475 0.35492 0.18445 0.51367 0.4082 0.15625 0.225 0.27742 0.56281 0.35742 1.0078 0.07875 0.44875 0.09086 1.0748 0.03711 1.8711-0.13 1.8912-0.44266 3.8313-0.94141 5.8301-0.4975 1.9975-1.1564 3.9099-1.9727 5.7324-0.85125 1.885-1.7303 3.211-2.6328 3.9785-0.9 0.7675-1.7599 1.1516-2.5762 1.1504-0.1875 0-0.38719-0.02547-0.58594-0.07422-0.2025-0.04875-0.38211-0.18125-0.53711-0.40625-0.16125-0.22375-0.27617-0.56102-0.35742-1.0098-0.0775-0.4475-0.09336-1.0704-0.03711-1.8691 0.1275-1.8875 0.4432-3.8229 0.93945-5.8066 0.49625-1.9825 1.1701-3.8833 2.0176-5.707 0.85375-1.92 1.7179-3.2618 2.5879-4.0293 0.87125-0.76625 1.745-1.1484 2.625-1.1484zm-75.295 12.359h1.2266c1.195 0 2.0272 0.17031 2.4922 0.50781 0.46375 0.3375 0.67024 0.8875 0.61524 1.6562-0.115 1.6975-0.59867 2.9205-1.4512 3.668-0.85375 0.7525-2.0852 1.1262-3.6914 1.125h-1.1289l1.9375-6.957z" transform="matrix(.8 0 0 -.8 179.97 616.1)" fill="#005643"/></g></g></svg>
