<?xml version="1.0" encoding="utf-8"?>
<!-- Generator: Adobe Illustrator 26.0.0, SVG Export Plug-In . SVG Version: 6.00 Build 0)  -->
<svg version="1.1" id="Layer_1" xmlns="http://www.w3.org/2000/svg" xmlns:xlink="http://www.w3.org/1999/xlink" x="0px" y="0px"
	 viewBox="0 0 864 129" style="enable-background:new 0 0 864 129;" xml:space="preserve">
<style type="text/css">
	.st0{fill:#E72F25;}
</style>
<g>
	<path class="st0" d="M0.94,5.37h91.61c29.45,0,44.1,18.79,44.1,40.4c0,25.9-21.16,41.73-44.1,41.73H30.54v36.26H0.94V5.37z
		 M30.54,32.01v30.34h57.72c14.5,0,17.76-8.29,17.76-15.83c0-6.22-3.26-14.5-17.76-14.5H30.54z"/>
	<path class="st0" d="M200.72,101.11h-43.36l-8.14,22.64H117.7L165.2,5.37h30.49l44.54,118.39h-32.11L200.72,101.11z M165.94,76.99
		h27.08L180.3,37.48L165.94,76.99z"/>
	<path class="st0" d="M245.12,5.37h56.09c26.49,0,39.66,18.79,39.66,40.4c0,17.46-8.88,30.34-20.72,36.85l20.72,41.14h-33.3
		L291.14,87.5h-16.43v36.26h-29.6V5.37z M274.71,32.01v30.34h19.24c11.54,0,16.28-8.29,16.28-15.83c0-6.22-4.74-14.5-16.28-14.5
		H274.71z"/>
	<path class="st0" d="M347.67,41.48C347.67,16.47,367.65,3,393.4,3c14.95,0,31.37,3.85,40.7,9.18l-5.62,25.16
		c-9.91-5.92-24.71-9.03-36.11-9.03c-9.18,0-15.39,3.55-15.39,9.76c0,19.24,60.68,8.44,60.68,48.25c0,21.16-15.09,39.81-46.62,39.81
		c-13.47,0-28.71-1.78-40.99-7.55l1.18-27.08c12.28,5.92,25.75,9.32,40.7,9.32c13.02,0,16.28-4.59,16.28-10.06
		C408.2,73,347.67,83.36,347.67,41.48"/>
	<path class="st0" d="M510.61,3c40.7,0,70,21.01,70,60.97c0,41.58-31.67,62.16-70.15,62.16c-38.77,0-70.44-20.87-70.44-62.01
		C440.01,25.35,468.87,3,510.61,3 M510.16,101.26c23.24,0,39.96-11.84,39.96-37.89c0-23.68-16.72-35.52-39.81-35.52
		c-23.09,0-39.81,11.54-39.81,36.41C470.5,89.27,487.22,101.26,510.16,101.26"/>
	<polygon class="st0" points="624.11,40.74 616.71,40.74 616.71,123.76 587.11,123.76 587.11,5.37 628.7,5.37 706.98,80.1 
		714.38,80.1 714.38,5.37 743.98,5.37 743.98,123.76 708.17,123.76 	"/>
	<path class="st0" d="M754.78,41.48C754.78,16.47,778.46,3,810.13,3c20.13,0,40.99,3.85,50.32,9.18l-5.62,25.16
		c-9.92-5.92-29.9-9.03-45.73-9.03c-17.02,0-25.01,3.55-25.01,9.76c0,20.42,79.92,4.59,79.92,48.25c0,21.16-18.06,39.81-56.24,39.81
		c-17.17,0-38.33-1.78-50.61-7.55l1.18-27.08c12.28,5.92,30.19,9.32,50.32,9.32c19.39,0,25.9-4.59,25.9-10.06
		C834.55,71.67,754.78,86.91,754.78,41.48"/>
</g>
</svg>
