<svg xmlns="http://www.w3.org/2000/svg" id="Layer_2" data-name="Layer 2" viewBox="0 0 750 529.69"><defs><style>      .cls-1 {        fill: none;      }      .cls-1, .cls-2, .cls-3 {        stroke-width: 0px;      }      .cls-2 {        fill: #000;      }      .cls-3 {        fill: #f2039c;      }    </style></defs><rect class="cls-1" y="-90" width="750" height="750"></rect><g><g><g><path class="cls-2" d="M319.12,394.01c-.3,8.07.94,14.92,3.8,20.95,1.08,2.27,2.4,4.23,3.96,5.92,9.81-8.59,17.32-18.62,22.51-30.09,5.66-12.52,8.5-26.09,8.5-40.7,0-17.89-3.8-32.58-11.41-44.06-.31-.47-.64-.92-.96-1.38-1.27,3.32-2.53,6.63-3.8,9.95l-2.07,5.44c-5.25,13.76-10.68,27.98-14.9,42.31-3.43,11.64-5.27,21.99-5.63,31.66Z"></path><path class="cls-2" d="M310.82,411.88c-2.43-8.39-2.91-17.06-1.44-26.5,1.9-12.29,4.22-22.42,7.28-31.88,5.35-16.52,11.7-32.93,17.84-48.8l.33-.84c1.12-2.9,2.24-5.84,3.34-8.77-5.64-6.52-11.89-12.05-18.75-16.57-10.44-6.86-20.95-11.85-31.53-14.98-10.59-3.13-18.86-5.29-24.82-6.49-19.98-5.07-36.16-9.24-48.53-12.52-12.38-3.28-22.07-6.56-29.07-9.84-7.01-3.28-11.71-6.86-14.09-10.73-2.39-3.87-3.58-8.95-3.58-15.21,0-6.86,1.49-12.52,4.47-17,2.98-4.47,6.78-8.2,11.41-11.18,4.62-2.98,9.76-5.07,15.43-6.26,5.66-1.19,11.33-1.79,17-1.79,8.65,0,16.62.75,23.93,2.24,7.3,1.5,13.79,4.03,19.46,7.6,5.66,3.58,10.21,8.5,13.64,14.76,3.42,6.26,5.44,14.17,6.04,23.71h67.99c0-18.49-3.51-34.22-10.51-47.19-7.01-12.97-16.48-23.63-28.4-31.98-11.93-8.34-25.57-14.38-40.93-18.12-15.36-3.73-31.39-5.59-48.08-5.59-14.31,0-28.63,1.94-42.94,5.81-14.31,3.88-27.14,9.84-38.47,17.89-11.34,8.05-20.51,18.11-27.51,30.19-7.01,12.08-10.51,26.32-10.51,42.72,0,14.61,2.75,27.06,8.27,37.35,5.51,10.29,12.75,18.86,21.69,25.72,8.95,6.86,19.08,12.45,30.42,16.77,11.33,4.33,22.96,7.98,34.89,10.96,11.63,3.29,23.11,6.26,34.44,8.95,11.33,2.68,21.47,5.81,30.42,9.39,8.95,3.58,16.17,8.05,21.69,13.42,5.51,5.37,8.27,12.38,8.27,21.02,0,8.05-2.09,14.69-6.26,19.9-4.18,5.22-9.39,9.32-15.66,12.3-6.26,2.98-12.97,5-20.13,6.04-7.16,1.05-13.87,1.57-20.13,1.57-9.25,0-18.19-1.12-26.84-3.35-8.65-2.24-16.18-5.66-22.59-10.29-6.42-4.62-11.56-10.66-15.43-18.12-3.88-7.45-5.81-16.55-5.81-27.28h-67.99c-.3,19.68,3.28,36.68,10.73,50.99,7.45,14.31,17.51,26.1,30.19,35.34,12.67,9.25,27.28,16.03,43.83,20.35,16.55,4.32,33.62,6.49,51.21,6.49,21.76,0,40.93-2.54,57.48-7.6,13.96-4.27,26-9.99,36.15-17.13-3.41-4.03-6.02-9.15-7.84-15.45Z"></path></g><g><path class="cls-2" d="M413.37,173.63c-3.82,7.08-6.59,14.99-8.33,23.71,6.1,3.74,13.34,5.9,21.17,5.93.06,0,.11,0,.17,0,22.48,0,39.71-17.05,40.12-39.73.19-10.44-4.15-20.82-11.9-28.48-.25-.25-.51-.48-.77-.72-4.19,2.21-8.22,4.62-12.06,7.31-11.92,8.35-21.39,19.01-28.4,31.98Z"></path><path class="cls-2" d="M461.43,368.23c-.86-3.08-1.32-6.43-1.32-10.1,0-8.65,2.76-15.66,8.27-21.02,5.52-5.37,12.75-9.84,21.69-13.42,4.41-1.77,9.12-3.42,14.12-4.97,1.16-1.89,2.13-3.91,2.67-6.11.84-3.42.47-6.15-1.03-7.68-1.5-1.53-4.21-1.96-7.63-1.21-4.58,1.01-8.87,3.27-13.5,7.13-5.4,4.49-10.59,9.49-15.6,14.32l-1.38,1.32c-2.29,2.2-4.57,4.42-6.84,6.64-8.24,8.03-16.76,16.33-25.89,23.79-7.57,6.19-14.14,10.78-20.68,14.45-5.87,3.3-11.4,5.05-16.89,5.34-.66.03-1.27.01-1.86-.05,1.31,4.85,3,9.56,5.06,14.13,2.92,6.46,6.58,12.46,10.97,18,4.49-2.9,9.15-6.12,14.06-9.72,12.02-8.83,23.87-19.04,35.78-30.83Z"></path><path class="cls-2" d="M476.78,163.11c.2,28.04-21.81,50.23-50.11,50.52-.17,0-.33,0-.5,0-7.91,0-15.71-1.91-22.72-5.42-.11,1.19-.21,2.4-.29,3.61,3.74,1.89,7.64,3.16,11.74,3.82,6.09.97,12.58,1.83,19.01.75,1.91-.32,3.79-.24,5.37-.12,2.89.22,5.02,1.24,6.33,3.05.34.46.61.96.81,1.49h24.42c.6-9.54,2.61-17.44,6.04-23.71,3.43-6.26,7.98-11.18,13.64-14.76,5.67-3.58,12.15-6.11,19.46-7.6,7.31-1.49,15.28-2.24,23.93-2.24,5.67,0,11.34.6,17,1.79,5.67,1.19,10.81,3.28,15.43,6.26,4.63,2.98,8.43,6.71,11.41,11.18,2.98,4.47,4.47,10.14,4.47,17,0,6.26-1.19,11.34-3.58,15.21-2.38,3.88-7.08,7.46-14.09,10.73-7,3.28-16.7,6.56-29.07,9.84-12.37,3.28-28.55,7.46-48.53,12.52-5.96,1.19-14.24,3.35-24.82,6.49-10.58,3.13-21.09,8.13-31.53,14.98-.74.48-1.45,1.01-2.17,1.51-1.46,4.22-2.97,8.47-4.44,12.6-1.98,5.57-4.03,11.33-5.95,17.01-4.29,12.67-8.58,25.58-12.72,38.06l-4.07,12.26c-.68,2.04-1.21,3.74-1.27,5.45,0,.21,0,.37,0,.5.11,0,.25-.03.41-.06,2.84-.54,5.81-1.74,9.34-3.77,6.97-4.01,13.84-8.96,21.62-15.59,8.36-7.13,16.34-14.99,24.07-22.6l2.88-2.83c6.72-6.6,13.56-12.71,19.37-17.82,6.01-5.28,12.26-8.46,19.12-9.72,1.9-.35,4.15-.67,6.52-.46,7.79.72,13.15,5.96,13.98,13.68.31,2.91.16,5.72-.42,8.44,1.2-.3,2.41-.6,3.65-.89,11.34-2.68,22.81-5.66,34.44-8.95,11.93-2.98,23.56-6.63,34.89-10.96,11.34-4.32,21.47-9.91,30.42-16.77,8.95-6.86,16.18-15.43,21.69-25.72,5.52-10.29,8.27-22.73,8.27-37.35,0-16.4-3.5-30.64-10.51-42.72-7-12.08-16.17-22.14-27.51-30.19-11.33-8.05-24.15-14.01-38.47-17.89-14.31-3.87-28.63-5.81-42.94-5.81-16.7,0-32.72,1.87-48.08,5.59-6.53,1.59-12.74,3.62-18.65,6.04,8.15,9.15,12.66,20.98,12.73,33.53Z"></path><path class="cls-2" d="M403.52,306.02c-7.6,11.48-11.41,26.17-11.41,44.06,0,1.45.04,2.89.09,4.32,6.61-19.96,13.42-40.09,20.21-60.01-3.15,3.57-6.12,7.45-8.89,11.63Z"></path><path class="cls-2" d="M660.94,338.9h-67.99c0,10.73-1.94,19.83-5.81,27.28-3.87,7.46-9.02,13.5-15.43,18.12-6.41,4.63-13.94,8.05-22.59,10.29-8.65,2.24-17.59,3.35-26.84,3.35-6.26,0-12.97-.52-20.13-1.57-7.16-1.04-13.87-3.05-20.13-6.04-6.26-2.98-11.48-7.08-15.66-12.3,0,0,0,0,0,0-15.87,15.33-31.62,28.06-47.78,38.6,2.29,2.29,4.72,4.49,7.31,6.59,11.18,9.1,25.05,16.18,41.6,21.25,16.55,5.07,35.71,7.6,57.48,7.6,17.6,0,34.66-2.17,51.21-6.49,16.55-4.32,31.16-11.11,43.83-20.35,12.68-9.24,22.74-21.02,30.19-35.34,7.46-14.31,11.04-31.31,10.73-50.99Z"></path></g></g><g><path class="cls-3" d="M349.72,431.74c-2.93.07-8.03-.27-13.04-1.69-7.57-2.15-13.09-6.66-16.48-13.81-3.37-7.1-4.38-14.59-4.09-22.34.41-11.07,2.63-21.81,5.75-32.4,4.8-16.3,11.01-32.1,17.05-47.97,13.21-34.75,26.72-69.38,40.28-103.99q2.22-5.66,6.55-1.29c8.66,8.76,19.22,13.58,31.34,15.19,6.07.8,12.15.9,18.24.29.71-.07,1.43-.14,2.15-.13,1.21.02,1.79.72,1.51,1.87-.33,1.39-.79,2.75-1.25,4.11-14.31,41.97-28.81,83.88-42.75,125.98-1.13,3.4-2.31,6.8-2.71,10.39-.12,1.07-.24,2.15-.16,3.21.27,3.33,1.8,4.72,5.14,4.54,5.61-.3,10.74-2.23,15.58-4.96,7.21-4.06,13.85-8.93,20.25-14.16,11.5-9.39,21.87-19.99,32.55-30.27,5.6-5.38,11.16-10.81,17.14-15.78,4.36-3.63,9.13-6.51,14.78-7.75,9.25-2.03,14.48,3.3,12.22,12.54-1.05,4.28-3.42,7.88-6.05,11.3-5.09,6.64-10.33,13.17-15.79,19.51-18.24,21.15-37.94,40.77-60.51,57.34-8.1,5.95-16.43,11.55-25.2,16.48-15.6,8.76-32.25,13.77-52.5,13.78Z"></path><path class="cls-3" d="M426.47,120.72c23.48-.71,43.45,19.61,43.02,42.87-.44,24.12-19,42.77-43.3,42.67-23.91-.09-42.93-19.05-42.92-42.77.02-25.35,21.19-43.52,43.19-42.78Z"></path></g></g></svg>